<svg xmlns="http://www.w3.org/2000/svg" viewBox="0 0 270 524" width="270" height="524"><path d="M 140.00 499.50 L 128.00 499.50 L 127.00 498.50 L 122.00 497.50 L 113.50 490.00 L 111.50 486.00 L 110.50 479.00 L 109.50 478.00 L 109.50 474.00 L 110.50 473.00 L 111.50 421.00 L 96.00 406.50 L 95.00 406.50 L 73.50 384.00 L 73.50 383.00 L 63.50 372.00 L 49.50 352.00 L 48.50 349.00 L 43.50 342.00 L 32.50 318.00 L 32.50 316.00 L 28.50 306.00 L 27.50 299.00 L 26.50 298.00 L 25.50 288.00 L 24.50 287.00 L 24.50 278.00 L 23.50 277.00 L 23.50 260.00 L 24.50 259.00 L 24.50 250.00 L 25.50 249.00 L 26.50 239.00 L 27.50 238.00 L 27.50 235.00 L 28.50 234.00 L 29.50 228.00 L 32.50 222.00 L 33.50 217.00 L 41.50 201.00 L 50.50 188.00 L 64.00 173.50 L 65.00 173.50 L 78.00 162.50 L 96.50 153.00 L 91.00 149.50 L 79.50 138.00 L 74.50 131.00 L 67.50 116.00 L 67.50 113.00 L 65.50 108.00 L 65.50 104.00 L 64.50 103.00 L 64.50 86.00 L 65.50 85.00 L 65.50 80.00 L 66.50 79.00 L 66.50 76.00 L 67.50 75.00 L 69.50 67.00 L 77.50 53.00 L 89.00 40.50 L 97.00 34.50 L 109.00 28.50 L 111.00 28.50 L 115.00 26.50 L 118.00 26.50 L 119.00 25.50 L 123.00 25.50 L 124.00 24.50 L 145.00 24.50 L 146.00 25.50 L 150.00 25.50 L 154.00 27.50 L 157.00 27.50 L 170.00 33.50 L 176.00 37.50 L 186.50 47.00 L 196.50 61.00 L 201.50 73.00 L 201.50 76.00 L 203.50 81.00 L 203.50 86.00 L 204.50 87.00 L 204.50 101.00 L 203.50 102.00 L 202.50 112.00 L 201.50 113.00 L 199.50 121.00 L 191.50 135.00 L 179.00 148.50 L 172.50 153.00 L 184.00 158.50 L 199.00 168.50 L 217.50 187.00 L 226.50 200.00 L 233.50 213.00 L 233.50 215.00 L 236.50 220.00 L 236.50 222.00 L 240.50 232.00 L 240.50 235.00 L 242.50 240.00 L 242.50 244.00 L 243.50 245.00 L 243.50 251.00 L 244.50 252.00 L 244.50 263.00 L 245.50 264.00 L 244.50 285.00 L 243.50 286.00 L 243.50 292.00 L 242.50 293.00 L 242.50 297.00 L 241.50 298.00 L 240.50 305.00 L 238.50 309.00 L 238.50 312.00 L 237.50 313.00 L 234.50 324.00 L 225.50 342.00 L 209.50 366.00 L 196.50 381.00 L 196.50 382.00 L 187.50 391.00 L 187.50 392.00 L 156.50 422.00 L 156.50 438.00 L 157.50 439.00 L 157.50 452.00 L 158.50 453.00 L 158.50 466.00 L 159.50 467.00 L 159.50 481.00 L 156.50 488.00 L 151.00 494.50 L 144.00 498.50 L 141.00 498.50 L 140.00 499.50 Z M 140.50 125.00 L 144.00 124.50 L 152.00 120.50 L 157.50 116.00 L 162.50 109.00 L 165.50 101.00 L 165.50 87.00 L 160.50 76.00 L 153.00 68.50 L 143.00 63.50 L 131.00 62.50 L 130.00 63.50 L 123.00 64.50 L 117.00 67.50 L 108.50 76.00 L 103.50 86.00 L 103.50 92.00 L 102.50 93.00 L 102.50 95.00 L 103.50 96.00 L 103.50 102.00 L 109.50 114.00 L 118.00 121.50 L 129.00 125.50 L 140.50 125.00 Z M 144.50 163.00 L 157.00 160.50 L 168.00 155.50 L 170.50 153.00 L 161.00 149.50 L 153.00 148.50 L 152.00 147.50 L 147.00 147.50 L 146.00 146.50 L 123.00 146.50 L 122.00 147.50 L 116.00 147.50 L 115.00 148.50 L 104.00 150.50 L 98.50 153.00 L 99.00 154.50 L 107.00 158.50 L 109.00 158.50 L 112.00 160.50 L 118.00 161.50 L 119.00 162.50 L 124.00 162.50 L 125.00 163.50 L 144.50 163.00 Z M 135.50 492.00 L 141.00 491.50 L 145.00 489.50 L 149.50 485.00 L 151.50 481.00 L 151.50 477.00 L 152.50 476.00 L 152.50 472.00 L 151.50 471.00 L 151.50 453.00 L 150.50 452.00 L 150.50 433.00 L 149.50 432.00 L 149.50 414.00 L 148.50 413.00 L 148.50 395.00 L 147.50 394.00 L 147.50 360.00 L 151.50 349.00 L 157.00 343.50 L 161.00 341.50 L 170.50 332.00 L 176.50 324.00 L 177.50 321.00 L 179.50 319.00 L 181.50 314.00 L 184.50 310.00 L 184.50 308.00 L 186.50 305.00 L 187.50 299.00 L 188.50 298.00 L 189.50 286.00 L 190.50 285.00 L 190.50 264.00 L 189.50 263.00 L 189.50 256.00 L 188.50 255.00 L 188.50 251.00 L 187.50 250.00 L 185.50 240.00 L 180.50 230.00 L 180.50 228.00 L 178.50 226.00 L 176.50 221.00 L 171.50 214.00 L 162.00 204.50 L 150.00 197.50 L 148.00 197.50 L 144.00 195.50 L 140.00 195.50 L 139.00 194.50 L 130.00 194.50 L 129.00 195.50 L 121.00 196.50 L 111.00 201.50 L 96.50 215.00 L 90.50 224.00 L 85.50 234.00 L 85.50 236.00 L 81.50 246.00 L 80.50 254.00 L 79.50 255.00 L 79.50 261.00 L 78.50 262.00 L 78.50 287.00 L 79.50 288.00 L 79.50 294.00 L 80.50 295.00 L 81.50 303.00 L 82.50 304.00 L 83.50 309.00 L 89.50 321.00 L 94.50 328.00 L 118.50 351.00 L 121.50 357.00 L 121.50 385.00 L 120.50 386.00 L 120.50 410.00 L 119.50 411.00 L 119.50 435.00 L 118.50 436.00 L 117.50 479.00 L 120.50 486.00 L 124.00 489.50 L 128.00 491.50 L 132.00 491.50 L 133.00 492.50 L 135.50 492.00 Z" fill="black" fill-rule="evenodd" stroke="none"/>
</svg>