<svg xmlns="http://www.w3.org/2000/svg" viewBox="0 0 270 524" width="270" height="524"><path d="M 142.00 499.50 L 126.00 499.50 L 118.00 495.50 L 113.50 491.00 L 109.50 481.00 L 111.50 421.00 L 104.00 414.50 L 103.00 414.50 L 74.50 386.00 L 74.50 385.00 L 64.50 374.00 L 49.50 353.00 L 35.50 327.00 L 32.50 317.00 L 30.50 314.00 L 30.50 311.00 L 26.50 300.00 L 25.50 290.00 L 24.50 289.00 L 24.50 282.00 L 23.50 281.00 L 23.50 256.00 L 24.50 255.00 L 25.50 242.00 L 26.50 241.00 L 26.50 238.00 L 27.50 237.00 L 27.50 234.00 L 28.50 233.00 L 28.50 230.00 L 29.50 229.00 L 31.50 221.00 L 40.50 202.00 L 51.50 186.00 L 69.00 168.50 L 82.00 159.50 L 93.00 154.50 L 94.50 153.00 L 90.00 148.50 L 89.00 148.50 L 76.50 135.00 L 68.50 120.00 L 68.50 118.00 L 66.50 114.00 L 65.50 106.00 L 64.50 105.00 L 64.50 83.00 L 65.50 82.00 L 65.50 78.00 L 66.50 77.00 L 66.50 74.00 L 67.50 73.00 L 68.50 68.00 L 77.50 52.00 L 82.50 47.00 L 82.50 46.00 L 92.00 37.50 L 108.00 28.50 L 110.00 28.50 L 117.00 25.50 L 121.00 25.50 L 122.00 24.50 L 130.00 24.50 L 131.00 23.50 L 147.00 24.50 L 148.00 25.50 L 151.00 25.50 L 152.00 26.50 L 155.00 26.50 L 156.00 27.50 L 161.00 28.50 L 171.00 33.50 L 178.00 38.50 L 190.50 51.00 L 198.50 64.00 L 198.50 66.00 L 200.50 69.00 L 200.50 71.00 L 202.50 75.00 L 203.50 84.00 L 204.50 85.00 L 204.50 104.00 L 203.50 105.00 L 203.50 109.00 L 202.50 110.00 L 201.50 117.00 L 195.50 130.00 L 191.50 136.00 L 187.50 140.00 L 187.50 141.00 L 174.50 153.00 L 190.00 161.50 L 201.00 169.50 L 220.50 190.00 L 226.50 199.00 L 227.50 202.00 L 229.50 204.00 L 236.50 219.00 L 236.50 221.00 L 241.50 234.00 L 241.50 237.00 L 242.50 238.00 L 243.50 248.00 L 244.50 249.00 L 244.50 258.00 L 245.50 259.00 L 245.50 279.00 L 244.50 280.00 L 244.50 288.00 L 243.50 289.00 L 242.50 299.00 L 241.50 300.00 L 241.50 303.00 L 239.50 307.00 L 239.50 310.00 L 238.50 311.00 L 238.50 314.00 L 237.50 315.00 L 236.50 320.00 L 225.50 343.00 L 214.50 360.00 L 205.50 372.00 L 194.50 384.00 L 194.50 385.00 L 183.50 396.00 L 183.50 397.00 L 156.50 423.00 L 156.50 434.00 L 157.50 435.00 L 157.50 448.00 L 158.50 449.00 L 158.50 462.00 L 159.50 463.00 L 159.50 476.00 L 160.50 477.00 L 160.50 479.00 L 159.50 480.00 L 158.50 485.00 L 153.50 493.00 L 149.00 496.50 L 142.00 499.50 Z M 138.50 125.00 L 143.00 124.50 L 146.00 122.50 L 148.00 122.50 L 154.00 118.50 L 158.50 114.00 L 161.50 110.00 L 164.50 103.00 L 164.50 100.00 L 165.50 99.00 L 165.50 89.00 L 164.50 88.00 L 164.50 85.00 L 160.50 77.00 L 149.00 66.50 L 141.00 63.50 L 127.00 63.50 L 118.00 67.50 L 115.00 70.50 L 114.00 70.50 L 107.50 78.00 L 103.50 88.00 L 103.50 100.00 L 107.50 110.00 L 116.00 119.50 L 126.00 124.50 L 130.00 124.50 L 131.00 125.50 L 138.50 125.00 Z M 141.50 163.00 L 152.00 161.50 L 153.00 160.50 L 158.00 159.50 L 161.00 157.50 L 163.00 157.50 L 168.50 154.00 L 166.00 151.50 L 164.00 151.50 L 163.00 150.50 L 160.00 150.50 L 155.00 148.50 L 151.00 148.50 L 150.00 147.50 L 144.00 147.50 L 143.00 146.50 L 126.00 146.50 L 125.00 147.50 L 113.00 148.50 L 112.00 149.50 L 109.00 149.50 L 108.00 150.50 L 103.00 151.50 L 100.50 154.00 L 108.00 158.50 L 110.00 158.50 L 117.00 161.50 L 120.00 161.50 L 121.00 162.50 L 127.00 162.50 L 128.00 163.50 L 141.50 163.00 Z M 139.50 491.00 L 144.00 489.50 L 149.50 484.00 L 151.50 479.00 L 151.50 458.00 L 150.50 457.00 L 150.50 439.00 L 149.50 438.00 L 149.50 420.00 L 148.50 419.00 L 148.50 401.00 L 147.50 400.00 L 147.50 381.00 L 146.50 380.00 L 146.50 366.00 L 147.50 365.00 L 147.50 358.00 L 151.50 348.00 L 155.00 344.50 L 160.00 341.50 L 171.50 330.00 L 178.50 320.00 L 180.50 315.00 L 184.50 309.00 L 184.50 307.00 L 186.50 304.00 L 187.50 297.00 L 188.50 296.00 L 188.50 291.00 L 189.50 290.00 L 190.50 268.00 L 189.50 267.00 L 188.50 253.00 L 187.50 252.00 L 187.50 249.00 L 186.50 248.00 L 186.50 245.00 L 185.50 244.00 L 183.50 236.00 L 180.50 231.00 L 180.50 229.00 L 178.50 227.00 L 176.50 222.00 L 171.50 215.00 L 161.00 204.50 L 149.00 197.50 L 143.00 196.50 L 142.00 195.50 L 126.00 195.50 L 125.00 196.50 L 120.00 197.50 L 109.00 203.50 L 96.50 216.00 L 90.50 225.00 L 84.50 238.00 L 84.50 240.00 L 82.50 244.00 L 82.50 247.00 L 81.50 248.00 L 81.50 251.00 L 80.50 252.00 L 79.50 264.00 L 78.50 265.00 L 78.50 283.00 L 79.50 284.00 L 79.50 291.00 L 80.50 292.00 L 81.50 301.00 L 82.50 302.00 L 84.50 310.00 L 89.50 320.00 L 93.50 326.00 L 118.50 350.00 L 122.50 359.00 L 122.50 367.00 L 121.50 368.00 L 121.50 392.00 L 120.50 393.00 L 120.50 417.00 L 119.50 418.00 L 119.50 442.00 L 118.50 443.00 L 118.50 468.00 L 117.50 469.00 L 117.50 476.00 L 118.50 477.00 L 118.50 481.00 L 120.50 485.00 L 125.00 489.50 L 130.00 491.50 L 139.50 491.00 Z" fill="white" fill-rule="evenodd" stroke="none"/>
</svg>